HIERARCHY
ROOT Hips
{
	OFFSET 0.000000 0.000000 0.000000
	CHANNELS 6 Xposition Yposition Zposition Yrotation Xrotation Zrotation
	JOINT Chest
	{
		OFFSET 0.000000 -0.009281 11.569106
		CHANNELS 3 Yrotation Xrotation Zrotation
		JOINT Chest2
		{
			OFFSET -0.000000 0.016865 9.269641
			CHANNELS 3 Yrotation Xrotation Zrotation
			JOINT Chest3
			{
				OFFSET -0.000000 0.000001 8.374491
				CHANNELS 3 Yrotation Xrotation Zrotation
				JOINT Chest4
				{
					OFFSET -0.000000 0.000001 8.374493
					CHANNELS 3 Yrotation Xrotation Zrotation
					JOINT Neck
					{
						OFFSET -0.000000 0.000002 12.152554
						CHANNELS 3 Yrotation Xrotation Zrotation
						JOINT Head
						{
							OFFSET -0.000000 0.040101 7.802319
							CHANNELS 3 Yrotation Xrotation Zrotation
							End Site
							{
								OFFSET -0.000000 0.020947 14.853096
							}
						}
					}
					JOINT RightCollar
					{
						OFFSET 2.894404 0.000001 6.791374
						CHANNELS 3 Yrotation Xrotation Zrotation
						JOINT RightShoulder
						{
							OFFSET 13.574684 0.000001 0.000000
							CHANNELS 3 Yrotation Xrotation Zrotation
							JOINT RightElbow
							{
								OFFSET 23.923903 0.000002 0.000000
								CHANNELS 3 Yrotation Xrotation Zrotation
								JOINT RightWrist
								{
									OFFSET 19.846718 0.012767 0.000000
									CHANNELS 3 Yrotation Xrotation Zrotation
									End Site
									{
										OFFSET 14.973145 0.000001 0.000000
									}
								}
							}
						}
					}
					JOINT LeftCollar
					{
						OFFSET -2.894404 0.000001 6.791374
						CHANNELS 3 Yrotation Xrotation Zrotation
						JOINT LeftShoulder
						{
							OFFSET -13.574684 -0.000001 0.000000
							CHANNELS 3 Yrotation Xrotation Zrotation
							JOINT LeftElbow
							{
								OFFSET -23.923903 -0.000002 0.000000
								CHANNELS 3 Yrotation Xrotation Zrotation
								JOINT LeftWrist
								{
									OFFSET -19.846718 0.012763 0.000000
									CHANNELS 3 Yrotation Xrotation Zrotation
									End Site
									{
										OFFSET -14.973145 -0.000001 0.000000
									}
								}
							}
						}
					}
				}
			}
		}
	}
	JOINT RightHip
	{
		OFFSET 9.469263 0.004643 0.045487
		CHANNELS 3 Yrotation Xrotation Zrotation
		JOINT RightKnee
		{
			OFFSET 0.000000 0.002661 -40.478676
			CHANNELS 3 Yrotation Xrotation Zrotation
			JOINT RightAnkle
			{
				OFFSET 0.000000 0.049106 -35.224068
				CHANNELS 3 Yrotation Xrotation Zrotation
				JOINT RightToe
				{
					OFFSET -0.000001 12.539529 -6.151390
					CHANNELS 3 Yrotation Xrotation Zrotation
					End Site
					{
						OFFSET -0.000001 5.044994 -1.291870
					}
				}
			}
		}
	}
	JOINT LeftHip
	{
		OFFSET -9.469263 0.004641 0.045487
		CHANNELS 3 Yrotation Xrotation Zrotation
		JOINT LeftKnee
		{
			OFFSET 0.000000 0.002661 -40.478676
			CHANNELS 3 Yrotation Xrotation Zrotation
			JOINT LeftAnkle
			{
				OFFSET 0.000000 0.049106 -35.224068
				CHANNELS 3 Yrotation Xrotation Zrotation
				JOINT LeftToe
				{
					OFFSET -0.000001 12.539529 -6.151390
					CHANNELS 3 Yrotation Xrotation Zrotation
					End Site
					{
						OFFSET -0.000001 5.044994 -1.291870
					}
				}
			}
		}
	}
}
MOTION
Frames: 13
Frame Time: 0.016667
79.527901 -19.573143 82.179184 -3.373457 -0.857316 -100.086047 -1.498604 -2.901756 0.296377 -0.635994 -1.311193 0.100606 -0.635994 -1.311193 0.100606 -0.476760 -0.983500 0.074086 3.952487 -17.756487 -7.720517 4.681567 3.231585 -12.894607 8.431969 1.244387 -2.285836 47.342906 -18.181299 -6.537885 21.421022 -36.333922 38.840315 -26.340351 39.446115 67.696915 -7.444509 2.898559 -3.999257 -43.913028 -7.834910 7.796578 -36.015195 -54.602936 -17.785007 14.720270 13.883347 -56.127025 -9.597370 -8.396044 -24.666171 10.151534 -40.384019 -9.033971 18.723193 -2.047593 28.853577 -14.622841 8.440758 -3.305983 -9.294025 -6.937536 -4.232374 -1.954551 -4.216098 8.162109 10.594110 5.090584 12.017406 -0.550417 0.291372 -0.032666 
79.411797 -19.556274 82.184525 -3.198159 -0.821129 -100.315931 -1.472965 -2.878765 0.328323 -0.674422 -1.299492 0.111099 -0.674422 -1.299492 0.111099 -0.505557 -0.974744 0.081885 3.928863 -17.692176 -7.643562 4.659220 3.351383 -12.761953 8.417179 1.277333 -2.227181 47.423714 -18.255245 -6.516786 21.587371 -36.275886 38.655415 -26.357555 39.421543 67.685016 -7.448030 2.996033 -3.989786 -43.880523 -7.812239 7.873337 -36.041689 -54.586650 -17.860060 14.677578 13.900958 -56.176014 -8.657115 -8.392802 -24.659517 10.688274 -41.008312 -9.737905 19.507862 -3.615880 29.377774 -13.180502 7.009918 -3.104002 -9.259231 -6.595572 -4.393509 -2.114617 -4.334849 8.274460 10.746061 5.026940 12.198930 -0.500612 0.233467 -0.032741 
79.302261 -19.515032 82.182243 -3.041263 -0.723609 -100.518234 -1.503479 -2.867574 0.332797 -0.720974 -1.283282 0.121125 -0.720974 -1.283282 0.121124 -0.540453 -0.962606 0.089325 3.914790 -17.643560 -7.575295 4.652761 3.442501 -12.641744 8.423234 1.308713 -2.209998 47.525959 -18.363549 -6.487398 21.727913 -36.201246 38.490763 -26.376551 39.392450 67.665701 -7.427444 3.054375 -4.015438 -43.842796 -7.728439 7.968584 -36.053594 -54.603087 -17.934745 14.615097 13.934880 -56.249282 -7.846420 -8.384039 -24.636204 11.297188 -41.485326 -10.708492 19.904949 -5.198167 29.542255 -11.451415 5.883583 -2.793006 -9.279194 -6.255267 -4.539111 -2.288371 -4.474614 8.484096 10.839538 4.997097 12.189439 -0.416651 0.205198 -0.026628 
79.185059 -19.470713 82.171799 -2.862862 -0.578232 -100.717512 -1.570568 -2.830085 0.331579 -0.773466 -1.258176 0.129152 -0.773465 -1.258176 0.129151 -0.579810 -0.943798 0.095267 3.908711 -17.609363 -7.513869 4.659803 3.507247 -12.531135 8.448377 1.316786 -2.207435 47.640860 -18.418298 -6.464359 21.838616 -36.158127 38.339276 -26.388975 39.351083 67.636836 -7.381437 3.080887 -4.038653 -43.785238 -7.618174 8.033680 -36.128429 -54.627815 -17.949814 14.530032 13.953327 -56.329584 -7.163156 -8.337862 -24.647610 11.907639 -41.821238 -11.746118 19.791995 -6.806371 29.567192 -9.559586 5.044149 -2.393400 -9.368939 -5.852481 -4.716273 -2.455869 -4.659210 8.729062 10.892753 4.990643 12.335720 -0.309011 0.191644 -0.014751 
79.053024 -19.388805 82.152290 -2.685663 -0.387778 -100.923340 -1.669123 -2.783939 0.326818 -0.823001 -1.232784 0.135552 -0.823002 -1.232785 0.135553 -0.616954 -0.924774 0.099999 3.897653 -17.582367 -7.457218 4.656631 3.558143 -12.430888 8.468028 1.369723 -2.194325 47.789010 -18.435662 -6.511907 21.904837 -36.148865 38.209174 -26.391219 39.311253 67.612678 -7.348725 3.125168 -4.052785 -43.697330 -7.547894 8.101198 -36.234519 -54.652892 -17.954805 14.477624 13.966156 -56.394160 -6.614405 -8.287878 -24.811116 12.370914 -42.044828 -12.525489 19.456796 -8.331300 29.268054 -7.706958 4.378965 -1.943522 -9.516332 -5.408403 -4.959268 -2.619566 -4.889700 8.974534 10.940135 4.999594 12.489966 -0.211412 0.180399 -0.010921 
78.909409 -19.296577 82.125008 -2.524158 -0.157180 -101.147793 -1.797899 -2.733644 0.332338 -0.865873 -1.209483 0.142889 -0.865873 -1.209483 0.142889 -0.649099 -0.907318 0.105449 3.878809 -17.561588 -7.405890 4.637792 3.596831 -12.342995 8.481977 1.397177 -2.168121 47.939448 -18.399727 -6.574184 21.964796 -36.140518 38.099547 -26.388409 39.285875 67.587700 -7.332170 3.189169 -4.054293 -43.593857 -7.539286 8.173425 -36.310406 -54.670299 -18.006511 14.411909 13.985201 -56.424889 -6.215507 -8.241299 -25.134077 12.655743 -42.176049 -12.936844 19.006472 -9.757031 28.711171 -6.020582 3.825811 -1.463647 -9.730027 -4.961907 -5.152296 -2.780405 -5.105757 9.227526 11.000396 5.004915 12.693249 -0.127472 0.173616 0.000451 
78.765015 -19.185566 82.089676 -2.387769 0.080460 -101.395558 -1.924667 -2.688650 0.354239 -0.902149 -1.186069 0.150339 -0.902149 -1.186068 0.150339 -0.676296 -0.889775 0.111001 3.846487 -17.550041 -7.358293 4.593534 3.617401 -12.266414 8.494306 1.402908 -2.152961 48.072500 -18.389518 -6.637726 22.035613 -36.092222 38.017041 -26.396591 39.273632 67.563043 -7.312805 3.221067 -4.050570 -43.504118 -7.514112 8.233327 -36.367066 -54.692275 -18.077349 14.352010 13.979227 -56.422407 -5.913347 -8.231229 -25.567944 12.753018 -42.169062 -13.004264 18.420856 -11.086469 28.074873 -4.520318 3.348007 -0.994294 -9.944461 -4.564783 -5.285668 -2.961457 -5.270675 9.489752 11.097025 5.038403 12.758998 -0.070800 0.138542 -0.003728 
78.637901 -19.081764 82.045891 -2.273540 0.273747 -101.655283 -1.999201 -2.658786 0.375457 -0.934012 -1.164735 0.156897 -0.934011 -1.164735 0.156898 -0.700185 -0.873793 0.115889 3.808184 -17.551488 -7.311784 4.538776 3.613453 -12.193676 8.515158 1.375515 -2.133483 48.178587 -18.382431 -6.688484 22.095671 -36.014713 37.965784 -26.406326 39.282255 67.542675 -7.289793 3.222853 -4.051992 -43.429133 -7.431118 8.279128 -36.440883 -54.717649 -18.120628 14.307359 13.943164 -56.402500 -5.606994 -8.283389 -26.001902 12.733685 -41.962705 -12.879524 17.556247 -12.324147 27.500444 -3.147633 2.969955 -0.533635 -10.130045 -4.235376 -5.399733 -3.127207 -5.374832 9.772653 11.178946 5.077381 12.800663 -0.011070 0.097513 0.000186 
78.532211 -18.971048 81.996399 -2.189396 0.476846 -101.939446 -2.069509 -2.636975 0.407168 -0.966198 -1.150211 0.163332 -0.966197 -1.150210 0.163336 -0.724317 -0.862919 0.120678 3.768106 -17.557145 -7.263558 4.481615 3.601653 -12.118297 8.540945 1.368855 -2.130238 48.267072 -18.393303 -6.726448 22.112924 -35.934930 37.925872 -26.403041 39.303586 67.546213 -7.270061 3.235914 -4.053085 -43.361596 -7.344722 8.317631 -36.531451 -54.736576 -18.143062 14.257898 13.910309 -56.385804 -5.334055 -8.365167 -26.294157 12.678326 -41.572841 -12.699103 16.573746 -13.384240 26.886295 -1.940907 2.628149 -0.099573 -10.323589 -3.954482 -5.526619 -3.321302 -5.455708 10.170181 11.225458 5.149788 12.843454 0.071860 0.066661 0.000263 
78.442749 -18.842817 81.942986 -2.120790 0.707415 -102.240904 -2.153765 -2.606880 0.432151 -0.999703 -1.137390 0.164602 -0.999703 -1.137390 0.164601 -0.749447 -0.853315 0.121586 3.725379 -17.571881 -7.203876 4.424042 3.573192 -12.022523 8.563781 1.376327 -2.122089 48.366909 -18.403072 -6.760355 22.064737 -35.871337 37.895225 -26.400935 39.332112 67.561137 -7.262760 3.263298 -4.035501 -43.286676 -7.279840 8.354169 -36.630762 -54.742890 -18.163537 14.209157 13.885989 -56.368390 -5.105222 -8.436155 -26.430805 12.576360 -41.042091 -12.466705 15.446420 -14.309490 26.282358 -0.876414 2.370938 0.320189 -10.538805 -3.673006 -5.675581 -3.535007 -5.576684 10.683533 11.183788 5.287303 12.673279 0.205997 0.050573 0.000033 
78.346062 -18.731043 81.886688 -2.049893 0.941573 -102.523421 -2.231283 -2.562213 0.433406 -1.033242 -1.122671 0.161938 -1.033243 -1.122671 0.161939 -0.774609 -0.842280 0.119550 3.685136 -17.601913 -7.140979 4.373127 3.516662 -11.919699 8.574973 1.372348 -2.119669 48.480157 -18.374983 -6.789362 21.988317 -35.824134 37.871961 -26.394248 39.350636 67.576027 -7.259950 3.279149 -4.027763 -43.204925 -7.208882 8.383267 -36.717591 -54.753928 -18.202075 14.148211 13.846204 -56.338481 -4.883473 -8.461053 -26.410847 12.419936 -40.408335 -12.192317 14.318686 -15.132112 25.570787 0.032098 2.197133 0.700020 -10.759772 -3.372119 -5.834971 -3.746122 -5.708698 11.251440 11.040831 5.462571 12.651181 0.390062 0.034485 0.023741 
78.210640 -18.602776 81.826218 -1.969593 1.193894 -102.767013 -2.324478 -2.493570 0.393320 -1.065098 -1.106843 0.155103 -1.065098 -1.106843 0.155102 -0.798518 -0.830406 0.114393 3.646787 -17.649684 -7.072238 4.328804 3.427569 -11.805152 8.584224 1.378911 -2.113490 48.602117 -18.325922 -6.847696 21.918063 -35.782623 37.850183 -26.373437 39.334667 67.584633 -7.253389 3.301725 -4.007929 -43.125282 -7.161633 8.413314 -36.776956 -54.777058 -18.263419 14.086521 13.771604 -56.312068 -4.692173 -8.414082 -26.260008 12.228010 -39.730538 -11.873357 13.340041 -15.831340 24.612370 0.776162 2.051975 1.028021 -11.014279 -3.028044 -5.979767 -3.918608 -5.849578 11.628681 10.982703 5.601298 12.794375 0.476539 -0.011840 0.026627 
78.042831 -18.455883 81.760239 -1.908316 1.401898 -103.020904 -2.393741 -2.452661 0.360571 -1.089497 -1.093881 0.148012 -1.089498 -1.093881 0.148013 -0.816834 -0.820678 0.109058 3.607437 -17.699646 -7.001637 4.283347 3.334384 -11.687497 8.596737 1.403954 -2.095179 48.704706 -18.254218 -6.937237 21.870107 -35.763769 37.854619 -26.360816 39.299372 67.573616 -7.245510 3.334377 -4.007760 -43.042527 -7.118808 8.456531 -36.798368 -54.824474 -18.350167 14.065246 13.666810 -56.278501 -4.481241 -8.315900 -25.943700 12.010391 -39.081270 -11.511435 12.107576 -16.403642 23.783391 -6.536376 9.224439 -0.897060 -11.266774 -2.678609 -6.103206 -4.050866 -5.992497 11.751586 11.048252 5.617055 13.069364 0.461671 -0.033703 0.010971 
